<svg xmlns="http://www.w3.org/2000/svg" viewBox="0 0 512 512">
  <defs>
    <linearGradient id="mainGradient" x1="0%" y1="0%" x2="100%" y2="100%">
      <stop offset="0%" style="stop-color:#10B981;stop-opacity:1" />
      <stop offset="50%" style="stop-color:#059669;stop-opacity:1" />
      <stop offset="100%" style="stop-color:#2E6D4A;stop-opacity:1" />
    </linearGradient>
    <filter id="shadow" x="-50%" y="-50%" width="200%" height="200%">
      <feDropShadow dx="0" dy="4" stdDeviation="8" flood-color="rgba(0,0,0,0.2)"/>
    </filter>
  </defs>
  
  <!-- Background circle with subtle shadow -->
  <circle cx="256" cy="256" r="240" fill="url(#mainGradient)" filter="url(#shadow)"/>
  
  <!-- Inner highlight circle for depth -->
  <circle cx="256" cy="256" r="240" fill="none" stroke="rgba(255,255,255,0.1)" stroke-width="4"/>
  
  <!-- Main "S" shape - more refined -->
  <path d="M 180 160 C 220 160 260 180 260 220 C 260 250 240 260 220 260 L 260 260 C 300 260 340 280 340 320 C 340 360 300 380 260 380 L 200 380" 
        stroke="white" stroke-width="24" stroke-linecap="round" stroke-linejoin="round" fill="none" opacity="0.95"/>
  
  <!-- Motion trail lines for dynamic effect -->
  <g opacity="0.7">
    <path d="M 100 200 L 140 200" stroke="white" stroke-width="12" stroke-linecap="round"/>
    <path d="M 80 240 L 120 240" stroke="white" stroke-width="12" stroke-linecap="round"/>
    <path d="M 90 280 L 130 280" stroke="white" stroke-width="12" stroke-linecap="round"/>
    <path d="M 110 320 L 150 320" stroke="white" stroke-width="12" stroke-linecap="round"/>
  </g>
  
  <!-- Smaller accent lines -->
  <g opacity="0.4">
    <path d="M 120 180 L 140 180" stroke="white" stroke-width="8" stroke-linecap="round"/>
    <path d="M 110 340 L 130 340" stroke="white" stroke-width="8" stroke-linecap="round"/>
  </g>
  
  <!-- Subtle inner glow -->
  <circle cx="256" cy="256" r="200" fill="none" stroke="rgba(255,255,255,0.05)" stroke-width="2"/>
</svg>
